<svg width="104" height="13" viewBox="0 0 104 13" fill="none" xmlns="http://www.w3.org/2000/svg">
<path d="M9.528 12.168C9.296 12.168 9.12 12.096 9 11.952C8.888 11.808 8.832 11.612 8.832 11.364C8.832 11.164 8.84 10.992 8.856 10.848C8.872 10.704 8.904 10.552 8.952 10.392C9 10.224 9.06 10.02 9.132 9.78C9.212 9.532 9.312 9.216 9.432 8.832C9.504 8.608 9.592 8.316 9.696 7.956C9.808 7.588 9.92 7.188 10.032 6.756C10.144 6.316 10.236 5.876 10.308 5.436C10.388 4.988 10.428 4.576 10.428 4.2C10.428 3.944 10.372 3.708 10.26 3.492C9.516 4.228 8.812 5.188 8.148 6.372C7.492 7.556 6.908 8.932 6.396 10.5C6.244 10.892 6.068 11.156 5.868 11.292C5.668 11.42 5.476 11.484 5.292 11.484C5.236 11.484 5.152 11.452 5.04 11.388C4.928 11.316 4.824 11.188 4.728 11.004C4.632 10.82 4.584 10.56 4.584 10.224C4.584 10.144 4.604 10.044 4.644 9.924C4.684 9.796 4.744 9.66 4.824 9.516C4.896 9.1 4.948 8.656 4.98 8.184C5.02 7.704 5.044 7.228 5.052 6.756C5.068 6.276 5.076 5.828 5.076 5.412C5.076 5.092 5.052 4.812 5.004 4.572C4.612 5.068 4.24 5.668 3.888 6.372C3.536 7.076 3.216 7.824 2.928 8.616C2.648 9.408 2.416 10.184 2.232 10.944C2.184 11.128 2.128 11.3 2.064 11.46C2 11.612 1.904 11.736 1.776 11.832C1.656 11.92 1.48 11.964 1.248 11.964C0.992 11.964 0.8 11.86 0.672 11.652C0.544 11.444 0.48 11.168 0.48 10.824C0.48 10.56 0.536 10.22 0.648 9.804C0.76 9.38 0.912 8.92 1.104 8.424C1.296 7.92 1.516 7.408 1.764 6.888C2.02 6.36 2.288 5.852 2.568 5.364C2.848 4.876 3.132 4.44 3.42 4.056C3.716 3.664 3.996 3.356 4.26 3.132C4.532 2.9 4.78 2.784 5.004 2.784C5.012 2.784 5.024 2.784 5.04 2.784C5.216 2.784 5.376 2.8 5.52 2.832C5.672 2.856 5.804 2.94 5.916 3.084C6.036 3.22 6.14 3.448 6.228 3.768C6.316 4.088 6.392 4.54 6.456 5.124C6.472 5.268 6.484 5.44 6.492 5.64C6.5 5.832 6.504 6.032 6.504 6.24C6.768 5.648 7.056 5.092 7.368 4.572C7.688 4.052 8.016 3.592 8.352 3.192C8.696 2.792 9.036 2.48 9.372 2.256C9.708 2.032 10.02 1.92 10.308 1.92C10.644 1.92 10.956 2.004 11.244 2.172C11.532 2.332 11.764 2.604 11.94 2.988C12.116 3.372 12.204 3.896 12.204 4.56C12.204 5.264 12.14 5.948 12.012 6.612C11.884 7.268 11.724 7.888 11.532 8.472C11.34 9.056 11.148 9.592 10.956 10.08C10.764 10.56 10.604 10.976 10.476 11.328C10.372 11.576 10.252 11.78 10.116 11.94C9.98 12.092 9.784 12.168 9.528 12.168ZM15.4443 12.048C14.9403 12.048 14.5723 11.896 14.3403 11.592C14.1163 11.28 14.0043 10.884 14.0043 10.404C14.0043 9.948 14.1043 9.508 14.3043 9.084C14.5043 8.652 14.7723 8.24 15.1083 7.848C15.4443 7.456 15.8203 7.092 16.2363 6.756C16.6523 6.412 17.0723 6.104 17.4963 5.832C17.9283 5.552 18.3403 5.316 18.7323 5.124C19.1243 4.924 19.4643 4.772 19.7523 4.668C20.0403 4.564 20.2483 4.512 20.3763 4.512C20.5123 4.512 20.6243 4.548 20.7123 4.62C20.8083 4.684 20.8563 4.812 20.8563 5.004C20.8563 5.204 20.7763 5.384 20.6163 5.544C20.4563 5.704 20.2603 5.84 20.0283 5.952C19.7003 6.112 19.3283 6.308 18.9123 6.54C18.5043 6.764 18.0923 7.02 17.6763 7.308C17.2603 7.596 16.8763 7.904 16.5243 8.232C16.1803 8.56 15.9003 8.904 15.6843 9.264C15.4683 9.616 15.3603 9.976 15.3603 10.344C15.3603 10.424 15.3763 10.488 15.4083 10.536C15.4403 10.584 15.5083 10.608 15.6123 10.608C15.7483 10.608 15.9283 10.544 16.1523 10.416C16.3763 10.28 16.6203 10.104 16.8843 9.888C17.1483 9.664 17.4123 9.42 17.6763 9.156C17.9403 8.884 18.1843 8.612 18.4083 8.34C18.6403 8.06 18.8323 7.8 18.9843 7.56C19.0963 7.376 19.2283 7.224 19.3803 7.104C19.5403 6.984 19.7043 6.924 19.8723 6.924C20.0083 6.924 20.1203 6.964 20.2083 7.044C20.3043 7.116 20.3523 7.248 20.3523 7.44C20.3523 7.504 20.3483 7.656 20.3403 7.896C20.3323 8.128 20.3203 8.412 20.3043 8.748C20.2963 9.076 20.2923 9.42 20.2923 9.78C20.2923 10.092 20.3203 10.364 20.3763 10.596C20.4403 10.82 20.5723 10.932 20.7723 10.932C21.0123 10.932 21.2603 10.848 21.5163 10.68C21.7723 10.504 22.0203 10.284 22.2603 10.02C22.5083 9.748 22.7363 9.46 22.9443 9.156C23.1523 8.852 23.3283 8.564 23.4723 8.292C23.6243 8.012 23.7323 7.788 23.7963 7.62C23.9003 6.916 24.0363 6.364 24.2043 5.964C24.3723 5.556 24.5563 5.268 24.7563 5.1C24.9643 4.932 25.1643 4.848 25.3563 4.848C25.5723 4.848 25.7523 4.9 25.8963 5.004C26.0483 5.108 26.1243 5.352 26.1243 5.736C26.1243 5.936 26.0403 6.236 25.8723 6.636C25.7043 7.036 25.4803 7.476 25.2003 7.956C25.1363 8.316 25.0963 8.688 25.0803 9.072C25.0643 9.456 25.0883 9.816 25.1523 10.152C25.3683 10 25.5883 9.776 25.8123 9.48C26.0363 9.176 26.2603 8.84 26.4843 8.472C26.7083 8.096 26.9323 7.72 27.1563 7.344C27.3803 6.96 27.6003 6.608 27.8163 6.288C28.0403 5.968 28.2563 5.712 28.4643 5.52C28.6803 5.32 28.8923 5.22 29.1003 5.22C29.3163 5.22 29.5123 5.26 29.6883 5.34C29.8723 5.412 30.0243 5.556 30.1443 5.772C30.2723 5.98 30.3683 6.28 30.4323 6.672C30.5043 7.056 30.5403 7.56 30.5403 8.184C30.5403 8.512 30.5723 8.832 30.6363 9.144C30.7003 9.448 30.8083 9.7 30.9603 9.9C31.1123 10.092 31.3243 10.188 31.5963 10.188C32.0363 10.188 32.4283 10.116 32.7723 9.972C33.1163 9.82 33.4163 9.644 33.6723 9.444C33.9283 9.244 34.1403 9.072 34.3083 8.928C34.4843 8.776 34.6203 8.7 34.7163 8.7C34.8763 8.7 34.9963 8.748 35.0763 8.844C35.1643 8.932 35.2083 9.044 35.2083 9.18C35.2083 9.26 35.1403 9.4 35.0043 9.6C34.8763 9.792 34.6963 10.008 34.4643 10.248C34.2403 10.48 33.9763 10.708 33.6723 10.932C33.3763 11.148 33.0603 11.328 32.7243 11.472C32.3883 11.616 32.0483 11.688 31.7043 11.688C31.0803 11.688 30.5643 11.576 30.1563 11.352C29.7563 11.12 29.4563 10.736 29.2563 10.2C29.0643 9.656 28.9683 8.924 28.9683 8.004C28.9683 7.948 28.9683 7.896 28.9683 7.848C28.9683 7.8 28.9683 7.752 28.9683 7.704C28.9683 7.504 28.9643 7.332 28.9563 7.188C28.9563 7.044 28.9363 6.932 28.8963 6.852C28.7683 7.068 28.6123 7.34 28.4283 7.668C28.2523 7.996 28.0563 8.348 27.8403 8.724C27.6243 9.1 27.3923 9.472 27.1443 9.84C26.9043 10.208 26.6603 10.544 26.4123 10.848C26.1643 11.152 25.9163 11.396 25.6683 11.58C25.4283 11.764 25.2003 11.856 24.9843 11.856C24.8243 11.856 24.6483 11.776 24.4563 11.616C24.2723 11.456 24.1163 11.24 23.9883 10.968C23.8603 10.688 23.7963 10.372 23.7963 10.02C23.4523 10.452 23.0963 10.848 22.7283 11.208C22.3603 11.56 21.9963 11.84 21.6363 12.048C21.2843 12.264 20.9483 12.372 20.6283 12.372C20.3643 12.372 20.1083 12.296 19.8603 12.144C19.6203 11.992 19.4123 11.72 19.2363 11.328C19.0603 10.936 18.9483 10.38 18.9003 9.66C18.5243 10.132 18.1323 10.548 17.7243 10.908C17.3243 11.268 16.9283 11.548 16.5363 11.748C16.1523 11.948 15.7883 12.048 15.4443 12.048ZM39.7518 6.564C39.7518 6.932 39.6278 7.304 39.3798 7.68C39.1318 8.056 38.7318 8.42 38.1798 8.772C37.6358 9.124 36.9158 9.456 36.0198 9.768C36.0678 10.192 36.2198 10.496 36.4758 10.68C36.7398 10.856 37.1598 10.944 37.7358 10.944C38.2558 10.944 38.7438 10.892 39.1998 10.788C39.6638 10.676 40.0958 10.528 40.4958 10.344C40.3838 10.072 40.2998 9.78 40.2438 9.468C40.1878 9.148 40.1598 8.808 40.1598 8.448C40.1598 7.72 40.2758 7.112 40.5078 6.624C40.7398 6.136 41.0318 5.772 41.3838 5.532C41.7358 5.284 42.0958 5.16 42.4638 5.16C42.7998 5.16 43.1078 5.224 43.3878 5.352C43.6758 5.48 43.9038 5.676 44.0718 5.94C44.2478 6.196 44.3358 6.528 44.3358 6.936C44.3358 7.584 44.1398 8.216 43.7478 8.832C43.3638 9.448 42.8598 10.004 42.2358 10.5C42.4678 10.724 42.7438 10.836 43.0638 10.836C43.3518 10.836 43.6718 10.76 44.0238 10.608C44.3758 10.456 44.7318 10.256 45.0918 10.008C45.4598 9.752 45.8158 9.48 46.1598 9.192C46.5038 8.896 46.8078 8.612 47.0718 8.34C47.1678 8.22 47.2598 8.144 47.3478 8.112C47.4438 8.072 47.5318 8.052 47.6118 8.052C47.7478 8.052 47.8598 8.096 47.9478 8.184C48.0358 8.264 48.0798 8.38 48.0798 8.532C48.0798 8.604 48.0598 8.692 48.0198 8.796C47.9798 8.9 47.9078 9.012 47.8038 9.132C47.5078 9.452 47.1558 9.796 46.7478 10.164C46.3478 10.524 45.9238 10.864 45.4758 11.184C45.0278 11.504 44.5838 11.764 44.1438 11.964C43.7038 12.164 43.2958 12.264 42.9198 12.264C42.1838 12.264 41.5558 11.944 41.0358 11.304C40.4918 11.6 39.9198 11.832 39.3198 12C38.7278 12.176 38.1438 12.264 37.5678 12.264C36.5518 12.264 35.8038 12.032 35.3238 11.568C34.8438 11.104 34.6038 10.472 34.6038 9.672C34.6038 8.928 34.6998 8.244 34.8918 7.62C35.0838 6.988 35.3358 6.444 35.6478 5.988C35.9598 5.524 36.2958 5.164 36.6558 4.908C37.0238 4.652 37.3798 4.524 37.7238 4.524C38.4038 4.524 38.9118 4.72 39.2478 5.112C39.5838 5.504 39.7518 5.988 39.7518 6.564ZM36.0918 8.604C36.4998 8.404 36.8798 8.18 37.2318 7.932C37.5918 7.684 37.8798 7.432 38.0958 7.176C38.3198 6.92 38.4318 6.68 38.4318 6.456C38.4318 6.248 38.3878 6.088 38.2998 5.976C38.2118 5.864 38.0398 5.808 37.7838 5.808C37.6238 5.808 37.4558 5.892 37.2798 6.06C37.1118 6.22 36.9478 6.436 36.7878 6.708C36.6358 6.98 36.4958 7.28 36.3678 7.608C36.2478 7.936 36.1558 8.268 36.0918 8.604ZM41.7198 9.516C42.1358 9.14 42.4558 8.72 42.6798 8.256C42.9118 7.784 43.0278 7.296 43.0278 6.792C43.0278 6.736 42.9878 6.664 42.9078 6.576C42.8358 6.48 42.7278 6.432 42.5838 6.432C42.3678 6.432 42.1838 6.516 42.0318 6.684C41.8798 6.852 41.7638 7.072 41.6838 7.344C41.6118 7.608 41.5758 7.896 41.5758 8.208C41.5758 8.712 41.6238 9.148 41.7198 9.516ZM48.1369 12.612C47.7929 12.612 47.5489 12.564 47.4049 12.468C47.2689 12.372 47.2009 12.232 47.2009 12.048C47.2009 11.888 47.2569 11.752 47.3689 11.64C47.4809 11.52 47.7289 11.4 48.1129 11.28C48.5609 11.144 48.9849 10.988 49.3849 10.812C49.7929 10.628 50.1249 10.428 50.3809 10.212C50.6449 9.996 50.7769 9.768 50.7769 9.528C50.7769 9.368 50.7209 9.252 50.6089 9.18C50.5049 9.108 50.3809 9.072 50.2369 9.072C50.1169 9.072 49.9409 9.092 49.7089 9.132C49.4849 9.164 49.2369 9.208 48.9649 9.264C48.6929 9.312 48.4289 9.356 48.1729 9.396C47.9249 9.428 47.7129 9.444 47.5369 9.444C47.1209 9.444 46.8129 9.352 46.6129 9.168C46.4129 8.976 46.3129 8.732 46.3129 8.436C46.3129 8.276 46.3969 8.056 46.5649 7.776C46.7329 7.496 46.9569 7.188 47.2369 6.852C47.5169 6.516 47.8289 6.18 48.1729 5.844C48.5169 5.508 48.8649 5.2 49.2169 4.92C49.5769 4.632 49.9169 4.404 50.2369 4.236C50.5569 4.06 50.8289 3.972 51.0529 3.972C51.3089 3.972 51.5129 4.052 51.6649 4.212C51.8249 4.372 51.9049 4.588 51.9049 4.86C51.9049 4.988 51.8929 5.128 51.8689 5.28C51.8449 5.424 51.7849 5.556 51.6889 5.676C51.5929 5.788 51.4449 5.868 51.2449 5.916C51.0449 5.964 50.7729 5.956 50.4289 5.892C50.1569 6.092 49.8729 6.312 49.5769 6.552C49.2889 6.784 49.0169 7.028 48.7609 7.284C48.5049 7.532 48.2929 7.776 48.1249 8.016C48.4209 7.92 48.7569 7.844 49.1329 7.788C49.5089 7.724 49.8889 7.692 50.2729 7.692C50.7369 7.692 51.1129 7.776 51.4009 7.944C51.6969 8.104 51.9129 8.32 52.0489 8.592C52.1929 8.864 52.2649 9.164 52.2649 9.492C52.2649 9.86 52.1449 10.228 51.9049 10.596C51.6649 10.964 51.3449 11.3 50.9449 11.604C50.5449 11.908 50.1009 12.152 49.6129 12.336C49.1249 12.52 48.6329 12.612 48.1369 12.612ZM54.3178 12.936C53.9498 12.936 53.6858 12.832 53.5258 12.624C53.3658 12.416 53.2858 12.112 53.2858 11.712C53.2858 11.344 53.3538 10.864 53.4898 10.272C53.6338 9.672 53.8218 9.004 54.0538 8.268C54.2938 7.524 54.5618 6.76 54.8578 5.976C55.1538 5.184 55.4618 4.408 55.7818 3.648C56.1018 2.88 56.4138 2.176 56.7178 1.536C56.8618 1.256 57.0138 1.064 57.1738 0.96C57.3338 0.856 57.5098 0.804 57.7018 0.804C57.8858 0.804 58.0418 0.856 58.1698 0.96C58.2978 1.056 58.3618 1.212 58.3618 1.428C58.3618 1.476 58.2978 1.66 58.1698 1.98C58.0418 2.292 57.8738 2.7 57.6658 3.204C57.4578 3.7 57.2298 4.26 56.9818 4.884C56.7338 5.5 56.4858 6.144 56.2378 6.816C55.9898 7.48 55.7658 8.136 55.5658 8.784C55.3658 9.432 55.2058 10.032 55.0858 10.584C55.3658 10.208 55.6658 9.792 55.9858 9.336C56.3138 8.872 56.6458 8.412 56.9818 7.956C57.3258 7.492 57.6618 7.068 57.9898 6.684C58.3258 6.3 58.6378 5.992 58.9258 5.76C59.2138 5.528 59.4658 5.412 59.6818 5.412C60.0818 5.412 60.4018 5.524 60.6418 5.748C60.8898 5.964 61.0138 6.34 61.0138 6.876C61.0138 7.124 60.9658 7.424 60.8698 7.776C60.7738 8.12 60.6578 8.484 60.5218 8.868C60.3938 9.244 60.2818 9.608 60.1858 9.96C60.0898 10.312 60.0418 10.62 60.0418 10.884C60.0418 11.028 60.1098 11.1 60.2458 11.1C60.6378 11.1 61.0338 11.016 61.4338 10.848C61.8418 10.68 62.2298 10.472 62.5978 10.224C62.9738 9.968 63.3138 9.716 63.6178 9.468C63.9298 9.212 64.1818 9 64.3738 8.832C64.5098 8.704 64.6338 8.62 64.7458 8.58C64.8578 8.532 64.9618 8.508 65.0578 8.508C65.3858 8.508 65.5498 8.672 65.5498 9C65.5498 9.064 65.5378 9.144 65.5138 9.24C65.4898 9.328 65.4138 9.44 65.2858 9.576C65.1578 9.712 64.9658 9.904 64.7098 10.152C64.4538 10.4 64.1538 10.664 63.8098 10.944C63.4738 11.224 63.1058 11.492 62.7058 11.748C62.3138 11.996 61.9098 12.2 61.4938 12.36C61.0778 12.52 60.6738 12.6 60.2818 12.6C59.6898 12.6 59.2338 12.432 58.9138 12.096C58.5938 11.768 58.4338 11.32 58.4338 10.752C58.4338 10.36 58.5138 9.868 58.6738 9.276C58.8338 8.676 59.0138 8.064 59.2138 7.44C58.9338 7.712 58.6418 8.036 58.3378 8.412C58.0338 8.78 57.7258 9.172 57.4138 9.588C57.1018 9.996 56.7938 10.4 56.4898 10.8C56.1938 11.192 55.9098 11.552 55.6378 11.88C55.3658 12.2 55.1178 12.456 54.8938 12.648C54.6698 12.84 54.4778 12.936 54.3178 12.936ZM77.9492 11.76C77.9492 11.984 77.8732 12.148 77.7212 12.252C77.5692 12.356 77.3692 12.412 77.1212 12.42C76.8412 12.42 76.5212 12.308 76.1612 12.084C75.8092 11.868 75.4372 11.576 75.0452 11.208C74.6532 10.84 74.2692 10.432 73.8932 9.984C73.5172 9.528 73.1692 9.072 72.8492 8.616C72.6412 9.472 72.4652 10.152 72.3212 10.656C72.1772 11.152 72.0332 11.508 71.8892 11.724C71.7532 11.94 71.5892 12.048 71.3972 12.048C71.1172 12.048 70.9292 11.928 70.8332 11.688C70.7372 11.44 70.6892 11.144 70.6892 10.8C70.6892 10.56 70.7052 10.316 70.7372 10.068C70.7772 9.812 70.8372 9.512 70.9172 9.168C70.9972 8.816 71.1052 8.38 71.2412 7.86C71.0652 7.692 70.9772 7.504 70.9772 7.296C70.9772 7.144 71.0172 6.996 71.0972 6.852C71.1852 6.7 71.3492 6.576 71.5892 6.48C71.8132 5.744 72.0052 5.144 72.1652 4.68C72.3252 4.208 72.4692 3.844 72.5972 3.588C72.7252 3.332 72.8412 3.156 72.9452 3.06C73.0572 2.964 73.1732 2.916 73.2932 2.916C73.5172 2.916 73.6892 2.98 73.8092 3.108C73.9292 3.236 73.9892 3.46 73.9892 3.78C73.9892 3.9 73.9532 4.144 73.8812 4.512C73.8172 4.872 73.6932 5.404 73.5092 6.108C74.2132 5.564 74.8612 5.028 75.4532 4.5C76.0452 3.972 76.5612 3.492 77.0012 3.06C77.4492 2.628 77.8132 2.284 78.0932 2.028C78.3732 1.772 78.5532 1.644 78.6332 1.644C78.8652 1.644 79.0492 1.72 79.1852 1.872C79.3292 2.016 79.4012 2.18 79.4012 2.364C79.4012 2.548 79.3212 2.74 79.1612 2.94C78.9852 3.148 78.7492 3.412 78.4532 3.732C78.1572 4.052 77.8252 4.4 77.4572 4.776C77.0892 5.144 76.7012 5.512 76.2932 5.88C75.8852 6.24 75.4732 6.568 75.0572 6.864C74.6492 7.16 74.2532 7.392 73.8692 7.56C73.9492 7.64 74.0332 7.732 74.1212 7.836C74.2172 7.932 74.3172 8.04 74.4212 8.16C74.6932 8.456 75.0172 8.784 75.3932 9.144C75.7692 9.496 76.1532 9.844 76.5452 10.188C76.9452 10.524 77.3052 10.82 77.6252 11.076C77.7372 11.18 77.8172 11.284 77.8652 11.388C77.9212 11.484 77.9492 11.608 77.9492 11.76ZM81.5423 12.396C80.9743 12.396 80.5183 12.196 80.1743 11.796C79.8303 11.388 79.6583 10.844 79.6583 10.164C79.6583 9.948 79.6863 9.728 79.7423 9.504C79.8063 9.28 79.8823 9.072 79.9703 8.88C79.9223 8.808 79.8823 8.716 79.8503 8.604C79.8263 8.484 79.8143 8.344 79.8143 8.184C79.8143 7.664 79.9063 7.188 80.0903 6.756C80.2743 6.316 80.5223 5.936 80.8343 5.616C81.1463 5.296 81.4903 5.048 81.8663 4.872C82.2423 4.696 82.6223 4.608 83.0063 4.608C83.6623 4.608 84.1983 4.828 84.6143 5.268C85.0383 5.708 85.2503 6.392 85.2503 7.32C85.2503 7.784 85.1783 8.256 85.0343 8.736C84.8903 9.216 84.6943 9.676 84.4463 10.116C84.2063 10.548 83.9263 10.936 83.6063 11.28C83.2943 11.624 82.9583 11.896 82.5983 12.096C82.2463 12.296 81.8943 12.396 81.5423 12.396ZM81.3503 8.34C81.3903 8.428 81.4103 8.532 81.4103 8.652C81.4103 8.772 81.3863 8.896 81.3383 9.024C81.2903 9.152 81.2423 9.324 81.1943 9.54C81.1463 9.748 81.1223 10.048 81.1223 10.44C81.1223 10.544 81.1343 10.632 81.1583 10.704C81.1903 10.768 81.2583 10.8 81.3623 10.8C81.6343 10.8 81.8903 10.712 82.1303 10.536C82.3783 10.36 82.5983 10.128 82.7903 9.84C82.9903 9.552 83.1583 9.232 83.2943 8.88C83.4383 8.52 83.5463 8.156 83.6183 7.788C83.6983 7.412 83.7383 7.064 83.7383 6.744C83.7383 6.536 83.6983 6.392 83.6183 6.312C83.5383 6.232 83.3983 6.192 83.1983 6.192C82.9263 6.192 82.6463 6.28 82.3583 6.456C82.0783 6.624 81.8423 6.856 81.6503 7.152C81.4583 7.44 81.3623 7.768 81.3623 8.136C81.3623 8.208 81.3583 8.276 81.3503 8.34ZM89.1686 12.6C88.4486 12.6 87.8806 12.38 87.4646 11.94C87.0566 11.492 86.8526 10.856 86.8526 10.032C86.8526 9.584 86.9126 9.06 87.0326 8.46C87.1526 7.852 87.3086 7.212 87.5006 6.54C87.7006 5.86 87.9126 5.188 88.1366 4.524C88.3686 3.86 88.5966 3.244 88.8206 2.676C89.0446 2.108 89.2406 1.632 89.4086 1.248C89.5526 0.952 89.7566 0.804 90.0206 0.804C90.1886 0.804 90.3246 0.856 90.4286 0.96C90.5406 1.064 90.5966 1.232 90.5966 1.464C90.5966 1.576 90.5406 1.82 90.4286 2.196C90.3166 2.572 90.1686 3.036 89.9846 3.588C89.8086 4.132 89.6166 4.72 89.4086 5.352C89.2086 5.984 89.0166 6.62 88.8326 7.26C88.6566 7.9 88.5126 8.504 88.4006 9.072C88.2886 9.632 88.2326 10.108 88.2326 10.5C88.2326 10.66 88.2766 10.788 88.3646 10.884C88.4606 10.98 88.5846 11.028 88.7366 11.028C89.0646 11.028 89.4006 10.968 89.7446 10.848C90.0966 10.728 90.4406 10.576 90.7766 10.392C91.1206 10.208 91.4446 10.012 91.7486 9.804C92.0526 9.596 92.3246 9.4 92.5646 9.216C92.8126 9.024 93.0126 8.872 93.1646 8.76C93.3646 8.608 93.5006 8.532 93.5726 8.532C93.8446 8.532 93.9806 8.664 93.9806 8.928C93.9806 8.992 93.9006 9.124 93.7406 9.324C93.6046 9.5 93.4126 9.724 93.1646 9.996C92.9166 10.268 92.6286 10.556 92.3006 10.86C91.9806 11.156 91.6366 11.436 91.2686 11.7C90.9086 11.964 90.5486 12.18 90.1886 12.348C89.8286 12.516 89.4886 12.6 89.1686 12.6ZM95.6139 12.6C94.8939 12.6 94.3259 12.38 93.9099 11.94C93.5019 11.492 93.2979 10.856 93.2979 10.032C93.2979 9.584 93.3579 9.06 93.4779 8.46C93.5979 7.852 93.7539 7.212 93.9459 6.54C94.1459 5.86 94.3579 5.188 94.5819 4.524C94.8139 3.86 95.0419 3.244 95.2659 2.676C95.4899 2.108 95.6859 1.632 95.8539 1.248C95.9979 0.952 96.2019 0.804 96.4659 0.804C96.6339 0.804 96.7699 0.856 96.8739 0.96C96.9859 1.064 97.0419 1.232 97.0419 1.464C97.0419 1.576 96.9859 1.82 96.8739 2.196C96.7619 2.572 96.6139 3.036 96.4299 3.588C96.2539 4.132 96.0619 4.72 95.8539 5.352C95.6539 5.984 95.4619 6.62 95.2779 7.26C95.1019 7.9 94.9579 8.504 94.8459 9.072C94.7339 9.632 94.6779 10.108 94.6779 10.5C94.6779 10.66 94.7219 10.788 94.8099 10.884C94.9059 10.98 95.0299 11.028 95.1819 11.028C95.5099 11.028 95.8459 10.968 96.1899 10.848C96.5419 10.728 96.8859 10.576 97.2219 10.392C97.5659 10.208 97.8899 10.012 98.1939 9.804C98.4979 9.596 98.7699 9.4 99.0099 9.216C99.2579 9.024 99.4579 8.872 99.6099 8.76C99.8099 8.608 99.9459 8.532 100.018 8.532C100.29 8.532 100.426 8.664 100.426 8.928C100.426 8.992 100.346 9.124 100.186 9.324C100.05 9.5 99.8579 9.724 99.6099 9.996C99.3619 10.268 99.0739 10.556 98.7459 10.86C98.4259 11.156 98.0819 11.436 97.7139 11.7C97.3539 11.964 96.9939 12.18 96.6339 12.348C96.2739 12.516 95.9339 12.6 95.6139 12.6ZM100.498 12.18C100.274 12.18 100.074 12.104 99.8983 11.952C99.7303 11.8 99.6463 11.552 99.6463 11.208C99.6463 11.024 99.6703 10.764 99.7183 10.428C99.7743 10.092 99.8463 9.728 99.9343 9.336C100.022 8.936 100.118 8.54 100.222 8.148C100.334 7.756 100.442 7.408 100.546 7.104C100.65 6.792 100.742 6.56 100.822 6.408C100.926 6.224 101.022 6.112 101.11 6.072C101.206 6.024 101.298 6 101.386 6C101.546 6 101.694 6.048 101.83 6.144C101.974 6.24 102.046 6.452 102.046 6.78C102.046 6.908 102.022 7.116 101.974 7.404C101.926 7.684 101.866 8.012 101.794 8.388C101.722 8.764 101.642 9.152 101.554 9.552C101.474 9.952 101.394 10.332 101.314 10.692C101.242 11.044 101.182 11.34 101.134 11.58C101.094 11.78 101.01 11.928 100.882 12.024C100.762 12.128 100.634 12.18 100.498 12.18ZM101.878 4.812C101.614 4.812 101.37 4.736 101.146 4.584C100.922 4.424 100.81 4.18 100.81 3.852C100.81 3.58 100.878 3.36 101.014 3.192C101.15 3.024 101.31 2.904 101.494 2.832C101.686 2.752 101.854 2.712 101.998 2.712C102.142 2.712 102.302 2.744 102.478 2.808C102.654 2.864 102.806 2.972 102.934 3.132C103.07 3.284 103.138 3.504 103.138 3.792C103.138 3.984 103.07 4.16 102.934 4.32C102.798 4.472 102.63 4.592 102.43 4.68C102.238 4.768 102.054 4.812 101.878 4.812Z" fill="#deaaff"/>
</svg>
